<svg width="475" height="80" viewBox="0 0 475 80" fill="none" xmlns="http://www.w3.org/2000/svg">
<path d="M13 70H0V15C6.44299e-07 6.71573 6.71573 1.20798e-07 15 0H60C68.2843 0 75 6.71573 75 15V70H63C63 75.5228 58.5228 80 53 80H23C17.4772 80 13 75.5228 13 70Z" fill="#A51919" fill-opacity="0.75"/>
<path d="M113 70H100V15C100 6.71573 106.716 1.20798e-07 115 0H160C168.284 0 175 6.71573 175 15V70H163C163 75.5228 158.523 80 153 80H123C117.477 80 113 75.5228 113 70Z" fill="#A51919" fill-opacity="0.75"/>
<path d="M213 70H200V15C200 6.71573 206.716 1.20798e-07 215 0H260C268.284 0 275 6.71573 275 15V70H263C263 75.5228 258.523 80 253 80H223C217.477 80 213 75.5228 213 70Z" fill="#A51919" fill-opacity="0.75"/>
<path d="M313 70H300V15C300 6.71573 306.716 1.20798e-07 315 0H360C368.284 0 375 6.71573 375 15V70H363C363 75.5228 358.523 80 353 80H323C317.477 80 313 75.5228 313 70Z" fill="#A51919" fill-opacity="0.75"/>
<path d="M413 70H400V15C400 6.71573 406.716 1.20798e-07 415 0H460C468.284 0 475 6.71573 475 15V70H463C463 75.5228 458.523 80 453 80H423C417.477 80 413 75.5228 413 70Z" fill="#A51919" fill-opacity="0.75"/>
</svg>
