<svg width="1280" height="832" viewBox="0 0 1280 832" fill="none" xmlns="http://www.w3.org/2000/svg">
<path d="M51.1754 460.148L104.506 373.168C139.705 300.53 206.476 124.202 191.969 0H-3.75562V832.381H101.307C98.6401 822.405 91.8137 795.345 85.8406 766.913C78.552 731.685 59.9217 632.422 43.7091 517.198V471.371L51.1754 460.148Z" fill="#A51919"/>
<path d="M-4.82213 514.392C-6.95537 488.953 -5.71098 471.37 -4.82213 465.759H47.4423C48.7222 465.759 48.3311 467.006 47.9756 467.629C44.5624 479.601 45.4868 501.299 46.3757 510.651C46.8023 513.644 45.4868 514.392 44.7757 514.392H-4.82213Z" fill="#F6C90E"/>
<path d="M1227.82 460.148L1174.49 373.168C1139.29 300.53 1072.52 124.202 1087.03 0H1282.76V832.381H1177.69C1180.36 822.405 1187.19 795.345 1193.16 766.913C1200.45 731.685 1219.08 632.422 1235.29 517.198V471.371L1227.82 460.148Z" fill="#A51919"/>
<path d="M1283.82 514.392C1285.96 488.953 1284.71 471.37 1283.82 465.759H1231.56C1230.28 465.759 1230.67 467.006 1231.02 467.629C1234.44 479.601 1233.51 501.299 1232.62 510.651C1232.2 513.644 1233.51 514.392 1234.22 514.392H1283.82Z" fill="#F6C90E"/>
</svg>
