<svg width="1291" height="833" viewBox="0 0 1291 833" fill="none" xmlns="http://www.w3.org/2000/svg">
<path d="M28.5878 460.148L55.2534 373.168C72.8526 300.53 106.238 124.202 98.9849 0H1.12231V832.381H53.6534C52.3202 822.405 48.907 795.345 45.9204 766.913C42.2761 731.685 32.961 632.422 24.8546 517.198V471.371L28.5878 460.148Z" fill="#A51919"/>
<path d="M0.588937 514.392C-0.477685 488.953 0.144511 471.37 0.588937 465.759H26.7211C27.3611 465.759 27.1656 467.006 26.9878 467.629C25.2812 479.601 25.7434 501.299 26.1878 510.651C26.4012 513.644 25.7434 514.392 25.3879 514.392H0.588937Z" fill="#F6C90E"/>
<path d="M1262.41 460.148L1235.75 373.168C1218.15 300.53 1184.76 124.202 1192.02 0H1289.88V832.381H1237.35C1238.68 822.405 1242.09 795.345 1245.08 766.913C1248.72 731.685 1258.04 632.422 1266.15 517.198V471.371L1262.41 460.148Z" fill="#A51919"/>
<path d="M1290.41 514.392C1291.48 488.953 1290.86 471.37 1290.41 465.759H1264.28C1263.64 465.759 1263.83 467.006 1264.01 467.629C1265.72 479.601 1265.26 501.299 1264.81 510.651C1264.6 513.644 1265.26 514.392 1265.61 514.392H1290.41Z" fill="#F6C90E"/>
</svg>
